<?xml version="1.0" encoding="utf-8"?>
<!-- Generator: Adobe Illustrator 27.2.0, SVG Export Plug-In . SVG Version: 6.00 Build 0)  -->
<svg version="1.1" id="レイヤー_1" xmlns="http://www.w3.org/2000/svg" xmlns:xlink="http://www.w3.org/1999/xlink" x="0px"
	 y="0px" viewBox="0 0 44 40" style="enable-background:new 0 0 44 40;" xml:space="preserve">
<style type="text/css">
	.st0{fill:#B3B3B3;}
</style>
<g id="icon_data">
	<path class="st0" d="M42,21c-0.5,0-0.9-0.2-1.3-0.5L22,4.6L3.3,20.5c-0.8,0.7-2.1,0.6-2.8-0.2c-0.7-0.8-0.6-2.1,0.2-2.8l20-17
		c0.7-0.6,1.8-0.6,2.6,0l20,17c0.8,0.7,0.9,2,0.2,2.8C43.1,20.8,42.6,21,42,21z"/>
	<path class="st0" d="M37,10c-1.1,0-2-0.9-2-2V4h-3c-1.1,0-2-0.9-2-2s0.9-2,2-2h5c1.1,0,2,0.9,2,2v6C39,9.1,38.1,10,37,10z"/>
	<path class="st0" d="M37,20c-1.1,0-2,0.9-2,2v14h-7V26c0-1.1-0.9-2-2-2h-8c-1.1,0-2,0.9-2,2v10H9V22c0-1.1-0.9-2-2-2s-2,0.9-2,2v16
		c0,1.1,0.9,2,2,2h30c1.1,0,2-0.9,2-2V22C39,20.9,38.1,20,37,20z M20,28h4v8h-4V28z"/>
</g>
</svg>
