<?xml version="1.0" encoding="utf-8"?>
<!-- Generator: Adobe Illustrator 27.2.0, SVG Export Plug-In . SVG Version: 6.00 Build 0)  -->
<svg version="1.1" id="レイヤー_1" xmlns="http://www.w3.org/2000/svg" xmlns:xlink="http://www.w3.org/1999/xlink" x="0px"
	 y="0px" viewBox="0 0 271 56" style="enable-background:new 0 0 271 56;" xml:space="preserve">
<style type="text/css">
	.st0{fill:#EB6D9B;}
</style>
<path class="st0" d="M30.8,21.3h10.4L36,39.8h6.2c4.5,1.4,10.5,3.5,17-0.9l-16.4,14l-15.3,0.2c-6.4-4.4-8.9-5.4-13.2-5.5
	c-4.3-0.1-10.5,1.9-14.3,3.1c5.6-5.5,10.6-9.8,17.3-11.1c4.5-0.9,8.2,0.4,8.2,0.4L30.8,21.3L30.8,21.3z"/>
<path class="st0" d="M34.8,2.8c5.8-0.6,7.9,1.9,9.5,3.9l1.6,1.6C47,9.3,52.7,13,60,9c0.9-1.1,1.8-2.2,3-3.6
	c-6,4.3-12.8,4.6-15.4,1.2C45,3.2,41.4-0.2,33.3,1.5c-8,1.7-16.2,9.7-22.8,16.6c2.4-1.7,4.6-3,6.6-3.9C21.1,10.1,28.1,3.5,34.8,2.8
	L34.8,2.8z"/>
<path class="st0" d="M44.9,9.4l-1.7-1.8c-1.6-1.9-3.4-4.1-8.7-3.7c-5.4,0.6-11.2,5.5-15.1,9.3c2.9-0.9,5.6-1,8.3-0.2
	c3.7,1.1,10,5.5,12.7,7.3c2.7,1.8,8.6-1.3,12.9-4.8c2.2-1.7,3.7-3.2,5.1-4.7C51.1,13.7,45.7,9.9,44.9,9.4L44.9,9.4z"/>
<path class="st0" d="M101.5,21.9c-3-0.2-4.1-2.9-7.5-3.4c-3.4-0.6-6.2,0.2-10.2,2.5L88,6.1c1.6-2.1,4.6-3.6,8.6-5.3H79.9
	c0.4,0.8,0.6,1.6,0.3,2.4L65.6,54.7h-1.1L79.1,3.2c0.2-0.7-0.2-1.6-0.8-2.4h-5c1.6,0.5,4.4,1.2,3.9,3L63.5,51.9
	c-1.7,1.9-2.5,2.3-6.1,3.5h21.9c-1.4-0.6-3.3-1.6-4.1-3.2l6.3-22.3c2-0.8,4.7-0.3,6.3,0.4c1.7,0.7,2.6,1.6,7.9,1.1
	c5.3-0.5,8.1-5.3,9.4-7.2c1.3-1.9,4-6.3,4-6.3C106.3,22.1,104.6,22.1,101.5,21.9z"/>
<path class="st0" d="M125.3,7.5c-0.2,3.5-0.7,6.8-1.6,9.7c-1.6,5.5-4.2,9.8-8,13c1.2-0.1,2.8-0.3,4.6-0.8c4.9-1.3,7.3-4,8.3-6.4
	c1-2.4,2.8-7.9,2.8-7.9h20.3c-1.7,11.4-5.5,20.3-11.2,27.9c-5.7,7.6-13.2,7.1-22.3,7.5c0,0,9.9,5,18.7,3.3c8.9-1.7,13.7-8.4,18.3-16
	c4.6-7.6,7.7-20.1,8.4-22.3c0.6-1.7,2-6,5-8L125.3,7.5L125.3,7.5z"/>
<path class="st0" d="M173,3.8h-47.3c-2.9,0-4-1.7-3.6-3.8l-4.6,3.9c3.4,0,3.4,2.8,3.3,5.2c-0.2,2.4-3.6,14.5-3.7,15.4
	c0,0.9-2.5,3.3-6,5.5c0.8,0.1,1.8,0.3,3,0.3c6.2-4.6,9.6-12.2,10.1-23.2V6.3h47.9L172,6.5L173,3.8z"/>
<path class="st0" d="M166.3,26.8c4.8-5.3,8.1-7.2,13.8-7.5c5.8-0.4,10.4,2,13.8,3.7l0.2,0.1c3.2,1.7,4.1,1.8,7,1.4
	c6-0.8,9.8-5.2,13.7-10c0.2-0.6,0.4-1.1,0.6-1.7c-5.1,5.8-8.9,9.4-13.8,9.4c-1.6,0-2.9,0.3-5.8-1.6c-3-1.8-11-3.4-13.4-3.4
	c-2.3,0-11.3,1.1-18.4,10.4C164.8,27.4,165.6,27.1,166.3,26.8L166.3,26.8L166.3,26.8z"/>
<path class="st0" d="M201,25.7c-3.2,0.4-4.3,0.2-7.7-1.5l-0.2-0.1c-3.3-1.7-7.8-4-13.3-3.6c-4.8,0.4-7.7,1.7-11.5,5.8
	c5.4-1.8,9.7-2.7,12.7-0.3c3.8,2.9,2.9,4.8,5.4,6.2c2.5,1.4,4.3,2.3,11.3-0.1c5.9-2,12-6,15.9-14.3C210.2,21.5,206.4,25,201,25.7
	L201,25.7z"/>
<path class="st0" d="M270.8,15.3c-2.3,4.4-5.7,10.6-10.3,12c-4.5,1.3-12.6,3.5-12.6,3.5l7.2-25.4c0.6-2,7.4-5.3,8-5.3h-17.7
	c1.1,1.2,1.9,2.5,1.1,5.3l-13.2,46.4c3-2.8,8.3-6.2,11.4-7.6c4-1.8,8-1.8,11.7-4c3.7-2.2,9.2-6.9,12.4-14
	C271.9,19.1,270.8,15.3,270.8,15.3L270.8,15.3z"/>
<path class="st0" d="M231.8,52.9l13.5-47.6c0.8-2.8-0.1-3.7-1.5-5.1L243.6,0h-3.4l0.5,0.7h-19.4c2.3,1,4.3,1.7,4.1,2.6
	c-0.3,0.9-6.7,23.4-7.6,26.8c-1,3.4-3.7,10.1-8.5,12.4c-4.8,2.2-10.8,2.4-13.7,2c4.3,3.1,7,4.9,11.2,5.1c4.3,0.2,9.5-0.5,13.3-4
	c6.4-5.9,8.1-10,9.7-15.7c1.6-5.7,5.3-18.5,6.2-21.7c0.9-3.2,3.4-4.8,6.1-6.3c2.7-1.5,2.1,1.8,1.9,2.5c-0.2,0.7-14.1,49.4-14.1,49.4
	h1.6c0.2-0.3,0.5-0.7,0.8-1L231.8,52.9L231.8,52.9z"/>
</svg>
