<svg width="24" height="18" viewBox="0 0 24 18" fill="none" xmlns="http://www.w3.org/2000/svg">
<path d="M11.9976 12.3938C12.6566 12.3938 13.2815 12.1311 13.7465 11.6531L23.9718 1.21866C23.8532 0.525358 23.2607 0 22.5491 0H1.44599C0.734425 0 0.141926 0.525358 0.0233318 1.21866L10.2458 11.6531C10.7141 12.1311 11.3357 12.3938 11.9976 12.3938Z" fill="#F2F2F2"/>
<path d="M24 3.7029L23.9948 3.70816V3.69764L14.9752 12.9043C14.1773 13.7158 13.1222 14.1641 11.9977 14.1641C10.8731 14.1641 9.81516 13.7158 9.02016 12.9043L0.0075 3.70051V3.70816L0 3.70051V16.5249C0 17.3392 0.647344 18 1.44562 18H22.5492C23.347 18 23.9948 17.3392 23.9948 16.5249L24 3.7029Z" fill="#F2F2F2"/>
</svg>
