<?xml version="1.0" encoding="utf-8"?>
<!-- Generator: Adobe Illustrator 27.2.0, SVG Export Plug-In . SVG Version: 6.00 Build 0)  -->
<svg version="1.1" id="レイヤー_1" xmlns="http://www.w3.org/2000/svg" xmlns:xlink="http://www.w3.org/1999/xlink" x="0px"
	 y="0px" viewBox="0 0 34 34" style="enable-background:new 0 0 34 34;" xml:space="preserve">
<style type="text/css">
	.st0{fill:none;stroke:#FF6699;stroke-linecap:round;stroke-linejoin:round;}
	.st1{fill:#FF6699;}
</style>
<path class="st0" d="M17,33c8.8,0,16-7.2,16-16c0-8.8-7.2-16-16-16C8.2,1,1,8.2,1,17C1,25.8,8.2,33,17,33z"/>
<path class="st1" d="M13.3,16.9c-1.3-1.3-1.3-3.3,0-4.6c2.2-2.2-1-6.1-3.6-4.5C9.4,8,9,8.3,8.8,8.5c-2.9,2.9-1.6,9,2.9,13.6
	c4.5,4.5,10.6,5.8,13.6,2.9c0.3-0.3,0.5-0.6,0.7-0.9c1.7-2.7-2.3-5.8-4.5-3.6c-1.3,1.3-3.3,1.3-4.6,0L13.3,16.9z"/>
</svg>
